<?xml version="1.0" standalone="no"?>
<!DOCTYPE svg PUBLIC "-//W3C//DTD SVG 20010904//EN"
 "http://www.w3.org/TR/2001/REC-SVG-20010904/DTD/svg10.dtd">
<svg version="1.0" xmlns="http://www.w3.org/2000/svg"
 width="2100.000000pt" height="2100.000000pt" viewBox="0 0 2100.000000 2100.000000"
 preserveAspectRatio="xMidYMid meet">
<metadata>
Created by potrace 1.11, written by Peter Selinger 2001-2013
</metadata>
<g transform="translate(0.000000,2100.000000) scale(0.100000,-0.100000)"
fill="#000000" stroke="none">
<path d="M12327 19194 c-1 -1 -27 -4 -57 -8 -112 -13 -136 -18 -175 -37 -52
-25 -74 -57 -79 -113 -6 -58 36 -142 74 -150 8 -2 23 -7 33 -11 10 -4 42 -5
70 -1 118 15 157 18 257 16 126 -1 174 -7 303 -36 4 -1 9 -3 12 -4 3 -1 8 -3
13 -4 4 -1 32 -9 62 -19 30 -9 58 -15 61 -14 4 1 16 -7 28 -17 12 -11 21 -16
21 -12 0 3 26 -8 58 -25 31 -17 71 -38 87 -47 34 -17 115 -73 153 -105 50 -43
212 -209 212 -217 0 -5 6 -15 13 -22 69 -70 192 -328 214 -447 2 -13 8 -32 13
-42 6 -10 10 -27 10 -39 0 -38 41 -98 78 -116 76 -36 186 5 208 77 36 120 -80
452 -239 688 -57 85 -56 84 -94 127 -118 134 -202 209 -333 299 -62 42 -118
78 -125 79 -7 1 -19 7 -26 12 -23 18 -99 54 -99 48 0 -4 -6 -1 -13 5 -30 25
-244 94 -332 107 -16 2 -39 6 -50 8 -69 13 -347 29 -358 20z"/>
<path d="M12298 18645 c-1 -1 -34 -5 -73 -8 -38 -4 -86 -11 -105 -18 -38 -13
-99 -72 -101 -98 -1 -9 -3 -29 -4 -46 -3 -48 30 -102 82 -132 24 -14 86 -17
158 -8 54 6 180 7 213 0 11 -2 37 -6 58 -10 49 -8 53 -9 87 -23 16 -7 32 -12
36 -12 27 0 221 -111 229 -132 2 -4 9 -8 15 -8 14 0 98 -85 144 -145 71 -91
141 -243 158 -344 19 -110 117 -175 208 -136 89 38 115 118 77 240 -5 17 -17
55 -26 85 -20 65 -82 199 -101 218 -7 7 -13 18 -13 23 0 26 -146 199 -213 255
-27 21 -63 52 -80 68 -18 15 -51 37 -74 47 -23 11 -45 23 -47 28 -6 9 -101 56
-101 50 -1 -2 -13 4 -27 13 -25 16 -171 62 -233 72 -71 13 -260 27 -267 21z"/>
<path d="M15062 18059 c-53 -27 -87 -90 -77 -147 14 -82 62 -125 155 -136 93
-12 107 -14 172 -31 58 -14 124 -36 236 -79 18 -7 38 -18 44 -24 7 -7 17 -12
23 -12 6 0 26 -11 45 -25 18 -13 36 -22 41 -20 4 3 9 2 11 -3 1 -4 33 -29 70
-56 37 -27 69 -55 72 -63 3 -7 10 -13 15 -13 7 0 70 -61 147 -144 6 -6 22 -30
37 -52 14 -22 31 -47 39 -55 7 -8 19 -25 25 -39 7 -14 26 -49 42 -77 17 -29
28 -53 25 -53 -2 0 2 -10 10 -22 22 -36 82 -222 78 -241 -1 -4 2 -16 7 -25 13
-26 24 -151 25 -302 2 -151 10 -178 63 -211 47 -29 87 -33 138 -13 57 21 82
61 94 145 12 82 1 355 -15 380 -2 4 -6 27 -9 50 -6 47 -79 288 -100 329 -7 14
-22 43 -33 65 -11 22 -29 56 -41 75 -11 19 -28 50 -37 68 -9 17 -20 32 -24 32
-4 0 -10 10 -14 23 -3 12 -20 38 -38 58 -18 19 -51 57 -72 85 -44 55 -129 139
-196 193 -25 20 -47 38 -50 41 -17 18 -80 60 -89 60 -6 0 -11 5 -11 10 0 6 -7
10 -15 10 -8 0 -24 9 -35 20 -11 11 -21 19 -22 18 -2 -1 -51 22 -111 51 -59
29 -116 53 -127 54 -11 1 -20 4 -20 8 0 9 -190 59 -223 59 -15 0 -27 3 -27 8
0 4 -21 8 -47 9 -27 1 -69 4 -94 7 -34 4 -56 0 -87 -15z"/>
<path d="M12240 18039 c-68 -19 -87 -31 -105 -67 -43 -85 -20 -168 58 -211 38
-21 52 -23 100 -18 82 10 153 -8 215 -55 62 -46 86 -82 109 -161 16 -59 61
-117 89 -117 8 0 14 -4 14 -9 0 -5 24 -7 54 -6 67 3 110 32 132 92 20 52 14
99 -23 192 -41 104 -118 202 -210 268 -26 19 -98 53 -113 54 -3 1 -9 4 -15 9
-36 29 -234 48 -305 29z"/>
<path d="M11931 17443 l-214 -117 -462 -442 -461 -442 -499 -638 -499 -639
-342 -645 -341 -645 -59 -735 -58 -734 -101 -183 c-56 -100 -121 -232 -145
-293 -24 -60 -46 -110 -50 -110 -4 0 -413 535 -909 1189 -994 1311 -926 1231
-1040 1231 -46 0 -193 -58 -1279 -506 -675 -278 -1255 -519 -1289 -535 -51
-24 -65 -37 -82 -72 -46 -94 -65 -37 439 -1309 253 -639 468 -1174 478 -1190
33 -56 78 -68 268 -68 l170 0 29 -30 c15 -16 42 -36 59 -44 l31 -15 128 -533
c71 -293 138 -552 149 -575 25 -53 81 -83 157 -83 48 0 149 41 1035 426 539
234 986 428 993 431 7 3 1 -22 -14 -59 -25 -60 -28 -90 -64 -583 -38 -513 -38
-528 -38 -1095 l0 -575 78 -660 78 -660 636 -2264 c350 -1245 639 -2266 642
-2269 3 -3 7 -3 9 -1 2 2 29 272 60 599 96 997 168 1559 285 2210 91 510 110
599 236 1100 175 701 383 1382 618 2031 l162 445 210 37 c115 21 216 38 222
37 7 0 174 -63 372 -140 328 -127 401 -160 828 -374 l468 -235 -152 0 -153 -1
0 -80 0 -80 -100 0 -100 0 0 80 0 80 -180 0 -180 0 0 -80 0 -80 -100 0 -100 0
0 80 0 80 -180 0 -180 0 0 -80 0 -80 -100 0 -100 0 0 80 0 80 -180 0 -180 0 0
-80 c0 -73 -2 -80 -20 -80 -20 0 -20 -7 -20 -320 l0 -320 2200 0 2200 0 0 294
c0 175 4 296 9 298 9 3 1011 3789 1011 3820 0 9 -35 23 -115 43 -62 16 -116
27 -119 24 -3 -2 -222 -830 -488 -1839 l-483 -1835 -148 -3 -147 -3 0 -79 0
-80 -100 0 -100 0 0 80 0 80 -180 0 -180 0 0 -80 0 -80 -100 0 -100 0 0 80 0
80 -180 0 -180 0 0 -80 0 -80 -100 0 -100 0 0 80 0 80 -180 0 -180 0 0 -80 0
-80 -80 0 -80 0 0 80 c0 70 -2 80 -17 80 -15 0 -32 51 -98 282 l-80 282 -193
310 -194 311 -210 211 -210 211 -294 118 c-162 64 -294 121 -292 126 2 4 127
273 278 596 l274 589 481 37 c444 35 508 42 858 100 307 50 377 65 377 77 0 9
-36 193 -79 410 l-80 395 -185 550 c-101 303 -236 696 -298 875 l-114 325
-180 280 -180 279 -321 222 c-280 192 -346 243 -509 390 -103 93 -192 172
-198 176 -7 5 106 125 284 304 l295 296 357 178 c325 163 398 196 830 364
l473 184 395 56 c217 31 404 56 416 56 12 0 63 -23 115 -51 52 -28 128 -69
169 -91 41 -22 112 -61 158 -85 46 -25 86 -43 89 -39 3 3 -11 130 -33 281
l-38 275 -261 0 -260 0 -470 -79 -470 -79 -770 -237 -770 -237 -685 -350
c-377 -193 -708 -363 -737 -379 l-52 -28 65 142 c36 78 79 174 97 212 17 39
134 219 259 400 l227 330 213 211 213 211 383 241 383 242 257 2 256 3 -199
125 c-263 164 -267 166 -287 184 -10 9 -18 14 -18 11 0 -3 -29 13 -64 35 -35
22 -69 40 -77 40 -8 0 -110 -53 -228 -117z"/>
<path d="M14968 17549 c-165 -25 -178 -246 -17 -287 40 -10 73 -16 153 -28 16
-2 35 -9 41 -14 7 -6 17 -10 21 -9 21 5 194 -79 194 -94 0 -6 3 -7 7 -4 5 6
46 -23 121 -88 100 -86 224 -296 248 -420 2 -11 7 -33 10 -50 12 -51 14 -77
13 -160 0 -122 0 -124 17 -158 33 -63 91 -94 151 -81 21 4 41 8 45 8 7 1 46
36 68 63 11 13 16 50 19 140 3 125 -6 206 -38 333 -13 52 -79 219 -94 238 -5
7 -19 29 -31 50 -37 68 -79 124 -143 191 -35 36 -63 69 -63 73 0 5 -7 8 -15 8
-9 0 -18 7 -21 15 -9 22 -171 129 -258 170 -100 47 -200 80 -271 91 -16 2 -48
7 -70 12 -22 4 -61 5 -87 1z"/>
<path d="M14880 16957 c-42 -10 -77 -41 -94 -82 -12 -27 -13 -50 -8 -105 1 -9
19 -34 40 -57 32 -34 47 -42 88 -47 115 -15 224 -104 251 -206 2 -8 6 -44 8
-80 2 -36 8 -77 14 -90 11 -28 61 -88 61 -74 0 5 4 3 9 -4 5 -8 31 -15 59 -17
68 -5 124 30 147 92 29 75 10 228 -43 343 -35 76 -145 210 -172 210 -4 0 -10
7 -14 15 -3 8 -12 15 -21 15 -8 0 -15 3 -15 8 0 7 -9 12 -100 50 -42 18 -93
30 -153 36 -12 1 -38 -2 -57 -7z"/>
<path d="M5205 6518 c-4 -24 -9 -50 -10 -59 -2 -9 -6 -40 -10 -70 -4 -30 -8
-56 -10 -59 -2 -3 -6 -27 -9 -55 -4 -27 -9 -57 -11 -65 -2 -8 -6 -37 -10 -65
-3 -27 -8 -62 -11 -77 l-6 -28 -137 0 -137 0 0 -125 1 -125 25 -1 c14 0 67 0
118 0 84 0 93 -1 88 -17 -3 -9 -7 -35 -11 -57 -3 -22 -10 -69 -16 -105 -6 -36
-13 -83 -16 -105 -3 -22 -13 -85 -22 -140 l-17 -100 -122 -3 -122 -3 0 -124 0
-125 100 0 c85 0 100 -2 100 -16 0 -15 -64 -408 -76 -466 l-6 -28 141 0 c78 0
141 4 141 9 0 4 6 46 14 92 8 46 17 102 20 124 4 22 13 81 22 130 8 50 17 105
20 123 l5 32 105 0 105 0 -6 -52 c-4 -29 -11 -75 -16 -103 -5 -27 -12 -66 -15
-85 -9 -63 -34 -214 -40 -242 l-6 -28 140 0 139 0 18 108 c10 59 19 118 20
132 2 14 7 52 13 85 6 33 14 78 17 99 13 93 0 86 155 86 l138 0 -1 125 -1 125
-118 0 -119 0 6 33 c3 17 7 46 10 62 3 17 7 48 10 70 3 22 10 63 15 90 5 28
12 68 15 90 3 23 7 50 9 60 2 11 7 44 11 73 5 41 11 53 24 51 9 -1 64 -1 124
0 l107 1 0 125 0 124 -103 3 -103 3 37 223 c20 123 40 238 43 257 l7 35 -141
0 c-105 0 -140 -3 -140 -12 0 -11 -21 -133 -33 -193 -3 -11 -8 -47 -13 -80 -4
-33 -8 -62 -9 -65 0 -3 -7 -42 -14 -87 l-13 -83 -108 0 -107 0 7 43 c9 47 12
67 40 247 11 69 24 149 28 178 l9 52 -138 0 -137 0 -7 -42z"/>
<path d="M6289 6558 c0 -4 0 -1998 0 -2030 l1 -28 154 0 154 0 -2 1028 -1
1027 -152 3 c-84 1 -153 1 -154 0z"/>
<path d="M6850 5530 l0 -1031 152 3 153 3 0 603 c0 331 2 602 5 602 3 0 63
-154 134 -343 71 -188 135 -355 142 -372 7 -16 22 -57 33 -90 12 -33 26 -69
31 -80 8 -18 60 -155 105 -277 l18 -48 137 0 137 0 0 1030 0 1030 -152 0 -152
0 1 -595 c1 -327 -1 -595 -4 -595 -3 0 -36 82 -74 183 -39 100 -73 189 -77
197 -5 8 -42 105 -85 215 -77 203 -139 363 -197 512 l-32 83 -137 0 -138 0 0
-1030z"/>
<path d="M11941 5530 l0 -1030 436 0 c305 0 447 4 475 12 25 7 50 25 71 51
l31 40 0 376 c0 373 0 377 -23 424 -22 45 -78 96 -151 138 -26 15 -50 35 -50
42 0 2 36 28 79 56 44 28 89 66 100 84 31 51 37 119 36 434 l-1 293 -30 42
c-17 25 -43 46 -64 54 -26 9 -148 13 -472 13 l-437 1 0 -1030z m690 731 c1
-44 1 -233 0 -362 l-1 -97 -74 -51 -74 -51 -115 0 -114 0 0 299 1 299 188 0
188 -1 1 -36z m-65 -862 c72 -49 74 -51 75 -92 0 -47 0 -528 0 -539 -1 -5 -88
-8 -195 -8 l-194 0 1 345 0 345 120 -1 119 -1 74 -49z"/>
<path d="M13190 5530 l0 -1030 430 0 430 0 0 135 0 135 -273 0 -273 0 -1 324
0 323 224 1 c123 0 227 3 231 7 4 4 7 65 8 136 l1 129 -232 0 -232 0 1 298 1
297 268 3 267 2 0 135 0 135 -425 0 -425 0 0 -1030z"/>
<path d="M14261 5530 l0 -1030 428 0 428 0 1 135 0 135 -273 0 -272 0 -1 324
0 324 212 0 c116 1 220 1 231 1 20 1 20 7 20 136 l0 135 -232 0 -231 0 1 298
2 297 268 3 267 2 0 135 0 135 -425 0 -424 0 0 -1030z"/>
<path d="M10829 6456 c-2 -2 -44 -7 -94 -10 -49 -4 -92 -11 -95 -16 -3 -5 -25
-12 -48 -16 -23 -4 -42 -10 -42 -15 0 -5 -5 -9 -11 -9 -11 0 -39 -25 -39 -35
0 -11 53 -55 66 -55 8 0 14 -3 14 -7 0 -5 17 -19 38 -33 20 -14 40 -30 44 -36
5 -7 29 -24 55 -40 27 -15 52 -33 56 -41 4 -7 12 -13 18 -13 5 0 22 -11 37
-25 15 -14 31 -25 35 -25 5 0 19 -9 31 -19 64 -59 80 -71 92 -71 7 0 14 -3 16
-7 2 -5 29 -26 61 -47 31 -22 57 -42 57 -46 0 -4 15 -15 34 -25 19 -11 33 -22
30 -27 -3 -4 7 -10 21 -14 14 -3 25 -10 25 -15 0 -5 13 -9 28 -9 35 0 80 47
89 92 3 18 12 44 20 58 7 14 13 33 13 43 0 9 4 25 9 35 12 21 24 54 26 67 4
26 19 71 26 80 4 6 11 29 14 50 7 40 6 40 -52 77 -32 21 -64 38 -70 38 -7 0
-13 4 -13 9 0 5 -13 12 -30 16 -16 4 -30 11 -30 16 0 5 -7 9 -15 9 -8 0 -15 4
-15 9 0 5 -22 12 -50 16 -27 4 -52 11 -55 15 -3 4 -26 11 -53 14 -61 8 -238
17 -243 12z"/>
<path d="M10359 6292 c-79 -53 -212 -195 -246 -261 -10 -20 -21 -38 -25 -41
-3 -3 -10 -18 -13 -33 -4 -15 -11 -27 -15 -27 -7 0 -21 -36 -25 -65 -2 -12
-13 -42 -26 -70 -15 -33 -29 -233 -22 -307 6 -67 7 -69 30 -63 14 3 35 17 47
30 13 14 28 25 33 25 6 0 21 9 34 20 39 32 42 34 94 70 28 19 52 38 55 41 3 4
15 9 28 13 12 4 22 12 22 17 0 5 7 9 15 9 9 0 18 7 21 15 3 8 15 17 25 20 11
4 30 16 43 28 39 35 51 44 73 51 12 4 24 13 27 21 3 8 12 15 20 15 8 0 16 4
18 8 2 4 20 18 41 31 20 12 37 27 37 32 0 5 6 9 14 9 7 0 36 21 65 48 44 41
51 53 51 85 0 20 -4 37 -8 37 -5 0 -15 11 -22 25 -7 14 -17 25 -22 25 -12 0
-71 42 -81 58 -4 6 -15 12 -22 12 -8 0 -15 4 -15 10 0 5 -10 12 -23 15 -13 4
-31 17 -41 31 -11 13 -25 24 -32 24 -8 0 -14 4 -14 9 0 5 -10 13 -22 17 -12 3
-28 13 -36 20 -18 19 -52 17 -83 -4z"/>
<path d="M11502 6178 c-5 -7 -13 -29 -16 -48 -4 -19 -11 -44 -15 -55 -17 -41
-51 -161 -51 -177 0 -10 -4 -18 -10 -18 -5 0 -10 -11 -10 -24 0 -14 -5 -28
-11 -31 -6 -4 -8 -12 -6 -19 3 -7 -3 -29 -14 -50 -10 -21 -21 -57 -25 -82 -3
-24 -10 -44 -14 -44 -5 0 -11 -19 -15 -42 -4 -23 -11 -49 -15 -58 -13 -27 -40
-117 -40 -134 0 -9 -4 -16 -10 -16 -5 0 -10 -10 -9 -22 0 -13 -3 -36 -7 -51
-4 -17 -1 -38 6 -53 l13 -24 244 0 c227 0 243 1 243 18 0 10 4 22 9 27 19 20
31 132 31 280 0 162 -11 245 -41 311 -10 23 -21 54 -25 68 -3 14 -10 26 -15
26 -5 0 -9 6 -9 14 0 7 -9 25 -20 39 -11 14 -20 30 -20 36 0 6 -8 19 -17 30
-10 10 -36 39 -58 64 -42 49 -56 55 -73 35z"/>
<path d="M10786 5775 c-100 -49 -150 -135 -144 -251 3 -62 8 -78 40 -127 51
-77 108 -109 202 -115 60 -3 81 0 121 18 101 46 157 137 154 246 -3 76 -23
126 -73 177 -76 78 -202 100 -300 52z"/>
<path d="M10368 5593 c-10 -2 -18 -9 -18 -14 0 -5 -4 -9 -10 -9 -12 0 -100
-62 -100 -71 0 -4 -11 -10 -25 -13 -14 -4 -25 -11 -25 -16 0 -6 -7 -10 -15
-10 -7 0 -18 -6 -22 -13 -4 -7 -21 -21 -38 -31 -16 -11 -34 -25 -38 -33 -4 -7
-12 -13 -18 -13 -5 0 -19 -8 -30 -18 -15 -14 -18 -26 -13 -51 4 -17 11 -34 15
-37 5 -3 7 -10 3 -15 -6 -11 17 -69 28 -69 3 0 9 -13 13 -30 4 -16 11 -30 16
-30 5 0 9 -7 9 -15 0 -9 7 -18 15 -21 8 -4 15 -14 15 -24 0 -10 7 -20 15 -24
8 -3 15 -11 15 -17 0 -6 29 -40 64 -74 36 -35 62 -65 59 -68 -2 -3 4 -8 15
-11 11 -4 23 -13 26 -21 3 -8 12 -15 21 -15 8 0 15 -4 15 -10 0 -5 11 -12 25
-16 14 -3 25 -9 25 -13 0 -9 82 -51 99 -51 6 0 11 -4 11 -10 0 -5 9 -10 20
-10 11 0 20 -4 20 -10 0 -5 23 -12 50 -16 28 -4 50 -10 50 -15 0 -5 16 -9 36
-9 l37 0 -6 56 c-3 30 -10 61 -16 68 -6 6 -13 31 -17 54 -4 23 -10 42 -15 42
-5 0 -9 11 -9 24 0 14 -4 27 -9 30 -5 3 -12 26 -15 51 -4 25 -11 45 -17 45 -5
0 -9 15 -9 33 0 17 -7 44 -14 59 -8 16 -18 48 -22 73 -3 25 -10 45 -15 45 -5
0 -9 9 -9 20 0 11 -4 20 -8 20 -5 0 -7 14 -4 30 3 18 0 30 -7 30 -6 0 -11 9
-11 19 0 11 -4 22 -9 25 -5 3 -7 15 -4 25 3 10 0 22 -6 25 -6 4 -11 16 -11 27
0 10 -4 19 -9 19 -4 0 -11 16 -14 36 -10 58 -50 83 -109 67z"/>
<path d="M10720 5128 c-11 -12 -20 -32 -20 -45 0 -20 47 -176 71 -238 14 -37
23 -70 20 -79 -1 -5 2 -12 6 -15 4 -3 15 -26 24 -51 l16 -45 69 1 c93 1 193
13 214 24 9 5 32 12 51 15 19 3 38 10 44 16 5 5 17 9 27 9 10 0 18 4 18 9 0 5
14 12 30 16 17 4 30 10 30 15 0 4 11 11 25 14 14 4 25 11 25 16 0 6 5 10 10
10 6 0 25 10 42 23 36 25 168 154 183 178 6 9 24 36 42 61 17 24 33 53 35 63
3 20 -7 20 -469 23 l-472 2 -21 -22z"/>
</g>
</svg>
